<?xml version="1.0" standalone="no"?>
<!DOCTYPE svg PUBLIC "-//W3C//DTD SVG 20010904//EN"
 "http://www.w3.org/TR/2001/REC-SVG-20010904/DTD/svg10.dtd">
<svg version="1.0" xmlns="http://www.w3.org/2000/svg"
 width="225.000000pt" height="225.000000pt" viewBox="0 0 225.000000 225.000000"
 preserveAspectRatio="xMidYMid meet">

<g transform="translate(0.000000,225.000000) scale(0.100000,-0.100000)"
fill="#000000" stroke="none">
<path d="M710 1485 c0 -3 11 -23 25 -45 l25 -40 93 0 94 0 134 -235 c100 -175
137 -231 145 -222 6 7 49 80 96 162 47 83 96 167 108 188 l22 37 -49 0 -48 -1
-65 -114 c-36 -63 -68 -115 -71 -115 -3 0 -57 88 -118 195 l-112 195 -140 0
c-76 0 -139 -2 -139 -5z"/>
<path d="M1216 1410 c-45 -77 -46 -81 -32 -107 31 -58 31 -58 76 21 l44 76 93
0 93 0 25 40 c14 22 25 42 25 45 0 3 -63 5 -139 5 l-139 0 -46 -80z"/>
<path d="M831 1273 c153 -268 285 -492 292 -495 4 -2 17 13 29 33 l20 36 -138
241 -139 241 -48 1 -48 0 32 -57z"/>
</g>
</svg>
